<svg version="1.1" id="Layer_1" xmlns="http://www.w3.org/2000/svg" xmlns:xlink="http://www.w3.org/1999/xlink" x="0px" y="0px"
	 width="100%" viewBox="0 0 842 595" enable-background="new 0 0 842 595" xml:space="preserve">
<path fill="#000000" opacity="1.000000" stroke="none" 
	d="
M547.000000,596.000000 
	C364.666656,596.000000 182.833328,596.000000 1.000000,596.000000 
	C1.000000,397.666656 1.000000,199.333328 1.000000,1.000000 
	C281.666656,1.000000 562.333313,1.000000 843.000000,1.000000 
	C843.000000,199.333328 843.000000,397.666656 843.000000,596.000000 
	C744.500000,596.000000 646.000000,596.000000 547.000000,596.000000 
M600.981079,299.056213 
	C600.981079,292.390717 600.981079,285.725220 600.981079,279.151886 
	C593.845398,279.151886 587.430237,279.151886 580.171265,279.379944 
	C580.171265,286.568115 580.171265,293.756287 580.171265,300.997955 
	C584.160461,300.997955 587.636108,301.130249 591.096802,300.959686 
	C594.356079,300.798981 597.599731,300.319122 600.981079,299.056213 
M599.096985,306.028656 
	C592.831970,306.028656 586.567017,306.028656 580.167236,306.028656 
	C580.167236,313.092896 580.167236,319.558899 580.467468,326.831268 
	C587.218750,326.831268 593.970093,326.831268 601.467102,326.831268 
	C600.968872,319.673889 600.498718,312.920441 599.096985,306.028656 
M657.967102,371.201904 
	C657.647888,369.614563 657.292664,368.033478 657.015625,366.438812 
	C655.700012,358.866516 652.647156,354.925140 645.926636,354.188019 
	C639.268188,353.457703 632.669006,353.232849 627.817078,360.031799 
	C623.664185,365.851257 623.830383,372.051086 624.025818,378.400543 
	C624.237671,385.282288 629.918762,392.033508 636.381958,393.759918 
	C644.829224,396.016266 652.708069,393.389801 656.703552,386.744629 
	C657.276855,385.791077 656.809998,384.212097 656.824463,382.922577 
	C655.572632,383.476105 653.752441,383.683105 653.167236,384.643036 
	C650.614807,388.829773 646.310852,390.042847 642.318237,389.733185 
	C638.013000,389.399231 634.988770,385.714386 633.442932,381.705933 
	C632.416443,379.044281 632.477417,375.963196 632.977966,373.008789 
	C638.461670,373.005646 643.948181,373.106476 649.427856,372.956146 
	C652.235291,372.879089 655.030396,372.353058 657.967102,371.201904 
M501.976044,387.039398 
	C501.983521,380.611725 502.066528,374.182709 501.953217,367.757172 
	C501.918427,365.784393 501.346283,363.821075 500.994354,361.135132 
	C496.723083,352.343445 486.751007,350.966400 478.538116,357.919678 
	C478.342102,357.803375 478.146118,357.687103 478.057526,357.398071 
	C478.057526,357.398071 477.910645,357.257294 477.988373,356.268463 
	C477.991608,351.158020 478.102051,346.044495 477.953491,340.938477 
	C477.877808,338.337769 477.336731,335.750641 476.115753,333.027618 
	C471.464081,333.415619 466.812408,333.803650 462.115082,334.195496 
	C462.250824,335.036621 462.210876,335.408203 462.371155,335.643463 
	C462.642212,336.041321 463.025299,336.640137 463.386414,336.658386 
	C470.328613,337.009277 470.019104,341.998810 470.009644,346.851501 
	C469.989166,357.331238 469.939758,367.811615 470.030212,378.290588 
	C470.076294,383.631470 471.056976,389.252319 464.267090,391.597900 
	C464.185059,391.626251 464.288391,392.191223 464.313019,392.652710 
	C470.799194,392.652710 477.273926,392.652710 484.632416,392.652710 
	C483.467285,391.388580 482.805359,390.107910 482.243805,390.150482 
	C477.888916,390.480743 477.934296,387.700439 477.978058,384.663849 
	C478.054779,379.341888 478.417816,373.975067 477.878235,368.707214 
	C477.352081,363.570496 479.706299,361.093781 484.005096,359.474396 
	C488.164612,357.907532 490.992462,359.551666 493.005646,363.948486 
	C493.040405,372.042084 493.075195,380.135681 492.663879,388.841492 
	C492.139771,389.205780 491.627197,389.588226 491.089081,389.930481 
	C490.086517,390.568085 489.069092,391.182312 488.057861,391.806274 
	C489.145782,392.203186 490.222992,392.903656 491.323517,392.942444 
	C495.272430,393.081573 499.232788,393.091461 503.180969,392.942017 
	C504.445435,392.894196 505.685516,392.200989 506.936737,391.803009 
	C505.925720,391.174438 504.871704,390.604004 503.917267,389.898804 
	C503.161194,389.340179 502.527222,388.616211 501.976044,387.039398 
M559.033447,361.987427 
	C559.073914,370.649902 559.114380,379.312378 558.768555,388.641602 
	C557.551453,389.092896 556.264893,389.420837 555.147583,390.049561 
	C554.619263,390.346893 554.216675,391.198547 554.147156,391.841278 
	C554.112244,392.163849 554.946472,392.901154 555.394470,392.906769 
	C561.219849,392.979889 567.046448,392.955261 572.872742,392.955261 
	C572.957825,392.440552 573.042908,391.925873 573.127991,391.411163 
	C572.071472,390.921112 570.789124,390.658936 570.011047,389.887878 
	C568.824890,388.712463 567.204041,387.222107 567.136780,385.800598 
	C566.830078,379.323120 566.900391,372.820740 567.044556,366.331940 
	C567.115479,363.139465 571.591553,359.318787 575.193665,359.004150 
	C579.040344,358.668152 581.695984,360.090881 582.036499,364.196045 
	C582.484192,369.594147 582.651611,375.014862 583.014099,380.420898 
	C583.325134,385.059753 583.165527,389.378174 577.602600,391.038971 
	C577.323364,391.122375 577.316833,392.119232 577.168884,392.752716 
	C583.576599,392.752716 589.692200,392.752716 596.324219,392.752716 
	C595.755737,391.584564 595.352722,390.140869 595.015320,390.156097 
	C590.543335,390.357208 590.963806,387.323364 590.984802,384.426544 
	C591.027161,378.600708 590.970581,372.774170 591.005798,366.948242 
	C591.035400,362.049652 594.368591,358.969635 599.518921,358.997437 
	C603.835571,359.020721 605.958069,361.577209 605.993591,366.921906 
	C606.031311,372.581360 605.942261,378.242096 606.025452,383.900574 
	C606.073914,387.202789 605.696655,389.925781 601.436157,390.059723 
	C600.830505,390.078766 600.265137,391.381439 599.408813,392.420380 
	C606.769714,392.420380 613.315735,392.420380 619.861694,392.420380 
	C613.443298,390.313477 613.797180,385.410797 613.960205,380.445587 
	C614.129456,375.290619 614.036255,370.126221 614.017639,364.966125 
	C613.991150,357.639557 610.382568,353.556885 603.280762,354.166504 
	C598.654968,354.563599 594.164734,356.539917 589.288635,357.899414 
	C586.533081,353.472260 576.112244,351.063263 567.261353,358.578522 
	C567.042053,356.967102 566.841980,355.496857 566.584595,353.605255 
	C561.807617,354.197754 557.453186,354.737854 551.780762,355.441406 
	C553.571350,357.063934 554.523071,358.065887 555.615967,358.877838 
	C556.729370,359.705048 557.981628,360.345337 559.033447,361.987427 
M339.978760,382.693115 
	C337.751007,384.090729 335.647827,386.354218 333.268280,386.696564 
	C328.985809,387.312744 328.423737,389.161469 329.573334,392.736664 
	C342.042847,392.736664 354.308533,392.736664 366.494934,392.736664 
	C368.206573,388.056061 364.441528,387.833008 362.041443,387.162292 
	C356.895508,385.724243 354.905670,382.581848 354.943237,377.343994 
	C355.078125,358.529816 355.002991,339.714081 354.984314,320.898956 
	C354.982605,319.169403 354.817902,317.439972 354.744263,316.009216 
	C349.470490,316.009216 344.928314,315.938782 340.389587,316.033661 
	C337.299561,316.098267 334.182343,316.189270 331.139374,316.665314 
	C329.379852,316.940582 326.719116,317.606903 326.260406,318.792389 
	C325.236084,321.439484 326.864410,322.800110 329.897156,323.127014 
	C334.736664,323.648621 338.564484,325.968414 339.925079,331.948120 
	C339.979126,348.621277 340.033203,365.294464 339.978760,382.693115 
M262.919891,414.841095 
	C262.946716,409.689911 262.862579,404.534821 263.044312,399.389099 
	C263.144714,396.546417 263.690887,393.719543 264.669891,391.240204 
	C270.213226,395.501892 276.697754,394.884125 283.135101,395.065155 
	C293.824463,395.365814 302.174347,390.417511 308.477753,382.741455 
	C322.484528,365.684448 322.532471,336.190186 302.817963,320.492401 
	C295.726349,314.845673 287.061432,311.883362 277.884979,315.043701 
	C272.725342,316.820679 268.029449,319.944183 263.991241,322.016357 
	C262.768707,320.229370 261.536743,316.546692 259.853729,316.327484 
	C255.131958,315.712494 250.224594,316.535522 245.389420,316.770508 
	C243.903641,316.842712 242.373474,317.088013 240.934189,316.841766 
	C234.902267,315.809723 234.540573,316.137573 235.581039,322.767151 
	C240.798553,322.920776 245.046844,324.906525 247.049362,331.054657 
	C247.094177,359.627655 247.139008,388.200684 246.969986,417.514130 
	C242.969543,419.483978 238.969116,421.453827 234.718597,423.546814 
	C234.743698,423.911194 234.845169,425.384552 234.352066,427.340210 
	C235.094727,427.560181 235.836807,427.969666 236.580139,427.971924 
	C249.519577,428.011108 262.459229,428.017487 275.398529,427.960022 
	C276.219727,427.956390 277.038361,427.371918 277.958252,426.183197 
	C277.958252,424.906281 277.958252,423.629333 277.958252,422.417877 
	C272.087524,421.232269 265.550476,422.660980 262.919891,414.841095 
M474.321228,254.154510 
	C472.202545,257.576385 475.621948,255.910370 476.205811,255.913971 
	C493.010284,256.017456 509.815552,256.016785 526.620422,255.954407 
	C527.800903,255.950027 528.979126,255.341629 530.863220,255.034866 
	C544.875244,245.225739 558.973022,235.535156 572.832581,225.515106 
	C575.882935,223.309830 577.947998,223.500458 580.844666,225.436722 
	C598.230957,237.058380 615.771973,248.448547 633.147766,260.085663 
	C660.025146,278.086243 686.815002,296.217499 713.629883,314.311249 
	C716.122803,315.993378 717.121033,318.194611 717.095032,321.431976 
	C716.918701,343.420868 717.002930,365.411865 717.002930,387.402161 
	C717.002930,389.167114 717.002869,390.932037 717.002869,392.836395 
	C725.769958,392.836395 733.904358,392.836395 742.851685,392.544769 
	C742.911194,367.725128 742.970764,342.905518 743.961060,318.010529 
	C754.125793,318.010529 764.290588,318.010529 775.120300,318.010529 
	C771.168396,315.288330 768.051025,313.025970 764.821777,310.936554 
	C750.864929,301.905853 736.898193,292.890045 722.892944,283.934753 
	C693.948792,265.427216 664.959839,246.989685 636.024231,228.468872 
	C617.275757,216.468506 598.640686,204.289352 579.789001,192.454376 
	C578.038879,191.355652 574.652466,191.306381 572.781433,192.257065 
	C567.706299,194.835724 563.047302,198.229660 558.206238,201.273285 
	C542.438293,211.186859 526.623413,221.026459 510.902893,231.014572 
	C498.913574,238.632019 487.040131,246.431839 474.321228,254.154510 
M73.005394,312.361267 
	C73.400299,322.021545 76.681183,330.462738 85.509666,335.090546 
	C95.118584,340.127502 105.255630,344.161652 115.187523,348.576538 
	C126.541183,353.623444 131.740265,361.998993 129.720993,374.209747 
	C129.110107,377.903748 126.596451,382.432465 123.549133,384.379486 
	C108.625534,393.914581 93.490562,386.827759 86.175293,375.696899 
	C82.027412,369.385559 79.154449,362.236298 75.470505,354.999237 
	C74.354065,355.053680 72.422401,355.147858 70.869698,355.223572 
	C70.869698,368.324951 70.869698,381.003387 70.869698,393.172668 
	C77.088058,395.936035 78.995651,391.791565 81.034531,388.568390 
	C84.129730,389.922607 86.909561,391.342468 89.825356,392.380432 
	C104.947563,397.763794 119.384872,397.265930 133.214035,388.053650 
	C148.522263,377.856079 151.225754,351.514404 137.322433,341.041382 
	C131.494705,336.651459 124.777306,333.368744 118.246956,330.004700 
	C110.573776,326.051910 102.301468,323.155121 94.960159,318.695496 
	C87.737480,314.307892 85.098007,300.861908 92.008469,293.378845 
	C101.224152,283.399506 117.693527,286.442841 124.660950,296.927612 
	C128.665634,302.953918 131.152145,310.032867 133.961960,316.787781 
	C135.072281,319.457062 136.710220,320.797302 139.122513,319.792419 
	C140.436249,319.245178 141.872253,317.031372 141.860611,315.580414 
	C141.784805,306.131012 141.335556,296.684357 140.984451,287.237701 
	C140.936508,285.948273 140.754745,284.663757 140.556427,282.533447 
	C137.883102,283.151550 134.491058,282.927338 133.485535,284.368378 
	C131.037018,287.877411 129.056976,286.465179 126.429382,285.158539 
	C117.213814,280.575775 107.678818,278.565613 97.337212,280.988953 
	C82.197594,284.536621 72.094948,298.005981 73.005394,312.361267 
M184.072754,314.103363 
	C176.480026,315.993408 169.241959,318.514130 164.268173,325.120056 
	C161.156296,329.253082 161.199600,337.326752 164.367035,339.699005 
	C167.729477,342.217316 175.367081,341.724640 177.319260,338.015900 
	C178.767288,335.264984 178.227661,331.478638 178.625626,328.159760 
	C178.833786,326.423706 178.693130,323.490509 179.504028,323.181488 
	C183.074890,321.820618 186.977890,320.342865 190.681244,320.524475 
	C198.299728,320.897980 203.341156,331.066071 203.174652,338.167755 
	C203.072586,342.520386 201.757065,344.616058 197.690872,345.996552 
	C188.043793,349.271729 178.284302,352.413208 169.054840,356.661560 
	C160.967484,360.384216 157.833481,367.991211 158.068420,376.683502 
	C158.293472,385.009552 162.016922,391.524139 170.276428,393.987640 
	C177.335373,396.093140 184.749863,396.184875 191.540787,392.728943 
	C195.677826,390.623596 199.391037,387.685364 203.356705,385.080505 
	C205.858734,391.765991 209.005234,394.733917 215.347382,394.862549 
	C219.527527,394.947357 223.765305,393.752075 227.922928,392.872925 
	C231.036682,392.214478 231.660400,390.133850 230.383118,387.200806 
	C229.302704,387.125763 228.293533,387.188019 227.349518,386.969208 
	C219.629669,385.179779 217.780289,385.175140 217.933823,376.217804 
	C218.162079,362.901520 218.051926,349.578064 217.974274,336.258331 
	C217.914307,325.969452 211.245895,315.881805 199.776413,314.980042 
	C194.845459,314.592346 189.903839,314.340546 184.072754,314.103363 
M446.005493,332.694580 
	C443.336456,329.436829 440.965607,325.864441 437.932800,322.990570 
	C432.551941,317.891754 425.825623,315.895020 418.518677,314.519623 
	C404.920074,311.959930 390.621582,317.286591 382.908691,329.181946 
	C372.702393,344.922791 372.209869,361.389679 380.960144,377.690308 
	C392.740967,399.636505 422.856903,401.267181 438.351135,386.065765 
	C451.849152,372.822845 454.938782,350.828125 446.005493,332.694580 
M514.321899,385.964722 
	C517.637451,392.488159 527.153809,395.543610 533.103333,394.524292 
	C545.623291,392.379211 552.459595,379.512787 548.394897,366.814514 
	C544.017944,353.140717 526.131653,348.786896 516.211182,359.229584 
	C511.200775,364.503815 508.584534,375.039978 514.321899,385.964722 
M673.642151,390.136780 
	C670.065125,386.657257 666.488037,383.177765 662.007385,378.819244 
	C662.007385,382.937714 662.002197,385.578918 662.008545,388.220123 
	C662.020508,393.147522 662.017090,393.115997 666.824219,392.177216 
	C667.355225,392.073547 667.991028,392.720398 668.604492,392.790833 
	C672.503540,393.238464 676.409485,393.941284 680.314148,393.948212 
	C685.550537,393.957520 690.726807,389.045074 691.044006,384.336243 
	C691.515076,377.342773 688.132629,372.382874 682.263550,370.938171 
	C679.297241,370.207947 676.499634,368.818756 673.567078,367.918549 
	C669.792236,366.759674 668.992920,363.575317 670.326172,360.946564 
	C671.282898,359.060059 674.799988,356.948425 676.605713,357.370728 
	C679.363098,358.015533 681.688232,360.688904 684.080750,362.643219 
	C685.448608,363.760529 686.586487,365.159363 688.701904,367.327026 
	C688.701904,361.784760 688.701904,358.038971 688.701904,354.006989 
	C683.382629,354.006989 678.410461,353.956360 673.439758,354.020782 
	C668.164917,354.089111 664.196106,357.172913 663.085632,361.926514 
	C661.846558,367.230225 663.493042,371.490082 668.353394,374.010376 
	C672.371582,376.093994 676.852661,377.318878 680.760803,379.564453 
	C682.344788,380.474609 683.717773,383.058228 683.777344,384.925262 
	C683.830444,386.589783 682.319641,389.013702 680.809509,389.835541 
	C678.997925,390.821442 676.455688,390.464752 673.642151,390.136780 
M567.115295,280.000702 
	C562.519470,280.000702 557.923706,280.000702 553.336914,280.000702 
	C553.336914,287.311371 553.336914,294.021088 553.336914,300.995667 
	C559.134521,300.995667 564.603271,300.883026 570.064392,301.039093 
	C573.202209,301.128815 574.128784,299.724976 574.031799,296.828430 
	C573.892761,292.677490 574.013000,288.518372 573.993469,284.362854 
	C573.966309,278.578430 573.695862,278.389038 567.115295,280.000702 
M562.500000,306.002625 
	C559.407471,306.002625 556.314941,306.002625 553.407715,306.002625 
	C553.407715,313.432281 553.407715,320.154449 553.407715,326.996460 
	C557.142883,326.996460 560.472717,327.031982 563.801636,326.990051 
	C575.678650,326.840454 573.885071,328.638672 573.980042,316.583954 
	C574.063416,306.003082 573.997375,306.002563 562.500000,306.002625 
M340.076630,294.503571 
	C346.148926,299.390656 353.190002,295.930237 355.992584,290.195679 
	C358.129852,285.822418 355.661102,278.169037 351.268860,276.084686 
	C345.081909,273.148621 339.649872,275.201508 337.243134,281.267303 
	C335.357422,286.019958 336.224792,290.197571 340.076630,294.503571 
z"/>
<path fill="#C9A845" opacity="1.000000" stroke="none" 
	d="
M742.038818,392.836395 
	C733.904358,392.836395 725.769958,392.836395 717.002869,392.836395 
	C717.002869,390.932037 717.002930,389.167114 717.002930,387.402161 
	C717.002930,365.411865 716.918701,343.420868 717.095032,321.431976 
	C717.121033,318.194611 716.122803,315.993378 713.629883,314.311249 
	C686.815002,296.217499 660.025146,278.086243 633.147766,260.085663 
	C615.771973,248.448547 598.230957,237.058380 580.844666,225.436722 
	C577.947998,223.500458 575.882935,223.309830 572.832581,225.515106 
	C558.973022,235.535156 544.875244,245.225739 530.031311,255.019684 
	C512.921692,255.006943 496.643951,255.035522 480.366516,254.974045 
	C478.615051,254.967422 476.865570,254.437622 475.115173,254.150513 
	C487.040131,246.431839 498.913574,238.632019 510.902893,231.014572 
	C526.623413,221.026459 542.438293,211.186859 558.206238,201.273285 
	C563.047302,198.229660 567.706299,194.835724 572.781433,192.257065 
	C574.652466,191.306381 578.038879,191.355652 579.789001,192.454376 
	C598.640686,204.289352 617.275757,216.468506 636.024231,228.468872 
	C664.959839,246.989685 693.948792,265.427216 722.892944,283.934753 
	C736.898193,292.890045 750.864929,301.905853 764.821777,310.936554 
	C768.051025,313.025970 771.168396,315.288330 775.120300,318.010529 
	C764.290588,318.010529 754.125793,318.010529 743.184326,318.317657 
	C742.276245,320.102386 742.031555,321.579865 742.030579,323.057556 
	C742.014832,346.317169 742.030396,369.576782 742.038818,392.836395 
z"/>
<path fill="#2D4794" opacity="1.000000" stroke="none" 
	d="
M73.005386,311.904083 
	C72.094948,298.005981 82.197594,284.536621 97.337212,280.988953 
	C107.678818,278.565613 117.213814,280.575775 126.429382,285.158539 
	C129.056976,286.465179 131.037018,287.877411 133.485535,284.368378 
	C134.491058,282.927338 137.883102,283.151550 140.556427,282.533447 
	C140.754745,284.663757 140.936508,285.948273 140.984451,287.237701 
	C141.335556,296.684357 141.784805,306.131012 141.860611,315.580414 
	C141.872253,317.031372 140.436249,319.245178 139.122513,319.792419 
	C136.710220,320.797302 135.072281,319.457062 133.961960,316.787781 
	C131.152145,310.032867 128.665634,302.953918 124.660950,296.927612 
	C117.693527,286.442841 101.224152,283.399506 92.008469,293.378845 
	C85.098007,300.861908 87.737480,314.307892 94.960159,318.695496 
	C102.301468,323.155121 110.573776,326.051910 118.246956,330.004700 
	C124.777306,333.368744 131.494705,336.651459 137.322433,341.041382 
	C151.225754,351.514404 148.522263,377.856079 133.214035,388.053650 
	C119.384872,397.265930 104.947563,397.763794 89.825356,392.380432 
	C86.909561,391.342468 84.129730,389.922607 81.034531,388.568390 
	C78.995651,391.791565 77.088058,395.936035 70.869698,393.172668 
	C70.869698,381.003387 70.869698,368.324951 70.869698,355.223572 
	C72.422401,355.147858 74.354065,355.053680 75.470505,354.999237 
	C79.154449,362.236298 82.027412,369.385559 86.175293,375.696899 
	C93.490562,386.827759 108.625534,393.914581 123.549133,384.379486 
	C126.596451,382.432465 129.110107,377.903748 129.720993,374.209747 
	C131.740265,361.998993 126.541183,353.623444 115.187523,348.576538 
	C105.255630,344.161652 95.118584,340.127502 85.509666,335.090546 
	C76.681183,330.462738 73.400299,322.021545 73.005386,311.904083 
z"/>
<path fill="#2C4693" opacity="1.000000" stroke="none" 
	d="
M234.946655,426.857910 
	C234.845169,425.384552 234.743698,423.911194 234.718597,423.546814 
	C238.969116,421.453827 242.969543,419.483978 247.312347,416.821045 
	C247.769119,415.143097 247.982773,414.158325 247.983475,413.173431 
	C248.002426,386.741516 248.011047,360.309540 247.964371,333.877716 
	C247.962158,332.630859 247.435837,331.384949 247.153595,330.138580 
	C245.046844,324.906525 240.798553,322.920776 235.581039,322.767151 
	C234.540573,316.137573 234.902267,315.809723 240.934189,316.841766 
	C242.373474,317.088013 243.903641,316.842712 245.389420,316.770508 
	C250.224594,316.535522 255.131958,315.712494 259.853729,316.327484 
	C261.536743,316.546692 262.768707,320.229370 263.991241,322.016357 
	C268.029449,319.944183 272.725342,316.820679 277.884979,315.043701 
	C287.061432,311.883362 295.726349,314.845673 302.817963,320.492401 
	C322.532471,336.190186 322.484528,365.684448 308.477753,382.741455 
	C302.174347,390.417511 293.824463,395.365814 283.135101,395.065155 
	C276.697754,394.884125 270.213226,395.501892 264.119781,390.768280 
	C263.134460,390.445435 262.316833,390.599731 262.318787,390.742859 
	C262.432373,399.072540 262.613770,407.401276 262.788605,415.730133 
	C265.550476,422.660980 272.087524,421.232269 277.958252,422.417877 
	C277.958252,423.629333 277.958252,424.906281 277.449738,426.600922 
	C262.943054,426.965057 248.944855,426.911469 234.946655,426.857910 
M263.061188,377.727722 
	C265.859375,380.856720 268.149017,384.783844 271.557190,386.955597 
	C279.707977,392.149231 291.032410,388.333160 295.987946,378.681030 
	C302.871460,365.273651 303.015991,351.067902 297.887543,337.196991 
	C293.742401,325.985535 283.698639,320.874634 273.594696,324.218750 
	C269.720825,325.500885 266.493866,328.737549 262.347565,331.628143 
	C262.251434,346.194275 262.145782,360.760376 262.095093,375.326660 
	C262.093109,375.894409 262.617737,376.463989 263.061188,377.727722 
z"/>
<path fill="#2D4794" opacity="1.000000" stroke="none" 
	d="
M184.519897,314.065186 
	C189.903839,314.340546 194.845459,314.592346 199.776413,314.980042 
	C211.245895,315.881805 217.914307,325.969452 217.974274,336.258331 
	C218.051926,349.578064 218.162079,362.901520 217.933823,376.217804 
	C217.780289,385.175140 219.629669,385.179779 227.349518,386.969208 
	C228.293533,387.188019 229.302704,387.125763 230.383118,387.200806 
	C231.660400,390.133850 231.036682,392.214478 227.922928,392.872925 
	C223.765305,393.752075 219.527527,394.947357 215.347382,394.862549 
	C209.005234,394.733917 205.858734,391.765991 203.356705,385.080505 
	C199.391037,387.685364 195.677826,390.623596 191.540787,392.728943 
	C184.749863,396.184875 177.335373,396.093140 170.276428,393.987640 
	C162.016922,391.524139 158.293472,385.009552 158.068420,376.683502 
	C157.833481,367.991211 160.967484,360.384216 169.054840,356.661560 
	C178.284302,352.413208 188.043793,349.271729 197.690872,345.996552 
	C201.757065,344.616058 203.072586,342.520386 203.174652,338.167755 
	C203.341156,331.066071 198.299728,320.897980 190.681244,320.524475 
	C186.977890,320.342865 183.074890,321.820618 179.504028,323.181488 
	C178.693130,323.490509 178.833786,326.423706 178.625626,328.159760 
	C178.227661,331.478638 178.767288,335.264984 177.319260,338.015900 
	C175.367081,341.724640 167.729477,342.217316 164.367035,339.699005 
	C161.199600,337.326752 161.156296,329.253082 164.268173,325.120056 
	C169.241959,318.514130 176.480026,315.993408 184.519897,314.065186 
M176.403976,366.173706 
	C176.273453,366.479431 176.139832,366.783905 176.012878,367.091095 
	C173.394836,373.425446 174.292450,380.489044 177.940277,383.416473 
	C182.970734,387.453461 186.497284,387.857300 194.191437,383.871368 
	C195.944382,382.963257 198.001572,382.225800 199.222168,380.809509 
	C200.838776,378.933716 202.689697,376.523193 202.827576,374.244904 
	C203.277893,366.803802 202.996414,359.318420 202.996414,351.340149 
	C193.113434,354.593292 183.070343,356.470734 176.403976,366.173706 
z"/>
<path fill="#2D4794" opacity="1.000000" stroke="none" 
	d="
M446.096832,333.062744 
	C454.938782,350.828125 451.849152,372.822845 438.351135,386.065765 
	C422.856903,401.267181 392.740967,399.636505 380.960144,377.690308 
	C372.209869,361.389679 372.702393,344.922791 382.908691,329.181946 
	C390.621582,317.286591 404.920074,311.959930 418.518677,314.519623 
	C425.825623,315.895020 432.551941,317.891754 437.932800,322.990570 
	C440.965607,325.864441 443.336456,329.436829 446.096832,333.062744 
M403.815979,386.907166 
	C413.586487,391.729370 423.272156,389.425690 428.247131,379.947601 
	C436.345581,364.518677 436.197205,348.259460 429.883789,332.349274 
	C427.460632,326.242737 422.757996,321.463776 415.032013,320.896149 
	C406.497284,320.269104 400.381714,323.841492 396.732483,331.004425 
	C391.716675,340.849854 391.034821,351.668365 392.372681,362.436157 
	C393.491241,371.438904 395.511505,380.338837 403.815979,386.907166 
z"/>
<path fill="#2C4693" opacity="1.000000" stroke="none" 
	d="
M340.071716,331.024689 
	C338.564484,325.968414 334.736664,323.648621 329.897156,323.127014 
	C326.864410,322.800110 325.236084,321.439484 326.260406,318.792389 
	C326.719116,317.606903 329.379852,316.940582 331.139374,316.665314 
	C334.182343,316.189270 337.299561,316.098267 340.389587,316.033661 
	C344.928314,315.938782 349.470490,316.009216 354.744263,316.009216 
	C354.817902,317.439972 354.982605,319.169403 354.984314,320.898956 
	C355.002991,339.714081 355.078125,358.529816 354.943237,377.343994 
	C354.905670,382.581848 356.895508,385.724243 362.041443,387.162292 
	C364.441528,387.833008 368.206573,388.056061 366.494934,392.736664 
	C354.308533,392.736664 342.042847,392.736664 329.573334,392.736664 
	C328.423737,389.161469 328.985809,387.312744 333.268280,386.696564 
	C335.647827,386.354218 337.751007,384.090729 340.268188,381.994293 
	C340.670197,365.128601 340.791595,348.961792 340.860168,332.794739 
	C340.862640,332.205872 340.346283,331.614746 340.071716,331.024689 
z"/>
<path fill="#C9A845" opacity="1.000000" stroke="none" 
	d="
M559.173096,361.067474 
	C557.981628,360.345337 556.729370,359.705048 555.615967,358.877838 
	C554.523071,358.065887 553.571350,357.063934 551.780762,355.441406 
	C557.453186,354.737854 561.807617,354.197754 566.584595,353.605255 
	C566.841980,355.496857 567.042053,356.967102 567.261353,358.578522 
	C576.112244,351.063263 586.533081,353.472260 589.288635,357.899414 
	C594.164734,356.539917 598.654968,354.563599 603.280762,354.166504 
	C610.382568,353.556885 613.991150,357.639557 614.017639,364.966125 
	C614.036255,370.126221 614.129456,375.290619 613.960205,380.445587 
	C613.797180,385.410797 613.443298,390.313477 619.861694,392.420380 
	C613.315735,392.420380 606.769714,392.420380 599.408813,392.420380 
	C600.265137,391.381439 600.830505,390.078766 601.436157,390.059723 
	C605.696655,389.925781 606.073914,387.202789 606.025452,383.900574 
	C605.942261,378.242096 606.031311,372.581360 605.993591,366.921906 
	C605.958069,361.577209 603.835571,359.020721 599.518921,358.997437 
	C594.368591,358.969635 591.035400,362.049652 591.005798,366.948242 
	C590.970581,372.774170 591.027161,378.600708 590.984802,384.426544 
	C590.963806,387.323364 590.543335,390.357208 595.015320,390.156097 
	C595.352722,390.140869 595.755737,391.584564 596.324219,392.752716 
	C589.692200,392.752716 583.576599,392.752716 577.168884,392.752716 
	C577.316833,392.119232 577.323364,391.122375 577.602600,391.038971 
	C583.165527,389.378174 583.325134,385.059753 583.014099,380.420898 
	C582.651611,375.014862 582.484192,369.594147 582.036499,364.196045 
	C581.695984,360.090881 579.040344,358.668152 575.193665,359.004150 
	C571.591553,359.318787 567.115479,363.139465 567.044556,366.331940 
	C566.900391,372.820740 566.830078,379.323120 567.136780,385.800598 
	C567.204041,387.222107 568.824890,388.712463 570.011047,389.887878 
	C570.789124,390.658936 572.071472,390.921112 573.127991,391.411163 
	C573.042908,391.925873 572.957825,392.440552 572.872742,392.955261 
	C567.046448,392.955261 561.219849,392.979889 555.394470,392.906769 
	C554.946472,392.901154 554.112244,392.163849 554.147156,391.841278 
	C554.216675,391.198547 554.619263,390.346893 555.147583,390.049561 
	C556.264893,389.420837 557.551453,389.092896 559.210571,387.977661 
	C559.492798,378.565002 559.332947,369.816223 559.173096,361.067474 
z"/>
<path fill="#C9A845" opacity="1.000000" stroke="none" 
	d="
M493.155304,363.021271 
	C490.992462,359.551666 488.164612,357.907532 484.005096,359.474396 
	C479.706299,361.093781 477.352081,363.570496 477.878235,368.707214 
	C478.417816,373.975067 478.054779,379.341888 477.978058,384.663849 
	C477.934296,387.700439 477.888916,390.480743 482.243805,390.150482 
	C482.805359,390.107910 483.467285,391.388580 484.632416,392.652710 
	C477.273926,392.652710 470.799194,392.652710 464.313019,392.652710 
	C464.288391,392.191223 464.185059,391.626251 464.267090,391.597900 
	C471.056976,389.252319 470.076294,383.631470 470.030212,378.290588 
	C469.939758,367.811615 469.989166,357.331238 470.009644,346.851501 
	C470.019104,341.998810 470.328613,337.009277 463.386414,336.658386 
	C463.025299,336.640137 462.642212,336.041321 462.371155,335.643463 
	C462.210876,335.408203 462.250824,335.036621 462.115082,334.195496 
	C466.812408,333.803650 471.464081,333.415619 476.560364,333.550720 
	C477.306885,341.801636 477.608765,349.529449 477.910645,357.257294 
	C477.910645,357.257294 478.057526,357.398071 478.029541,357.769348 
	C478.397919,358.135193 478.794220,358.129700 479.190552,358.124207 
	C486.751007,350.966400 496.723083,352.343445 500.951355,361.969940 
	C500.941742,365.291199 500.918335,367.779999 501.019958,370.263672 
	C501.261444,376.165619 501.562225,382.065155 501.839020,387.965668 
	C502.527222,388.616211 503.161194,389.340179 503.917267,389.898804 
	C504.871704,390.604004 505.925720,391.174438 506.936737,391.803040 
	C505.685516,392.200989 504.445435,392.894196 503.180969,392.942017 
	C499.232788,393.091461 495.272430,393.081573 491.323517,392.942444 
	C490.222992,392.903656 489.145782,392.203186 488.057861,391.806274 
	C489.069092,391.182312 490.086517,390.568085 491.089081,389.930481 
	C491.627197,389.588226 492.139771,389.205780 493.198700,388.219025 
	C493.540771,379.404785 493.348053,371.213043 493.155304,363.021271 
z"/>
<path fill="#CAA949" opacity="1.000000" stroke="none" 
	d="
M514.141479,385.618774 
	C508.584534,375.039978 511.200775,364.503815 516.211182,359.229584 
	C526.131653,348.786896 544.017944,353.140717 548.394897,366.814514 
	C552.459595,379.512787 545.623291,392.379211 533.103333,394.524292 
	C527.153809,395.543610 517.637451,392.488159 514.141479,385.618774 
M539.675171,381.802521 
	C539.781799,377.308136 540.200378,372.794159 539.919739,368.324097 
	C539.527222,362.073334 535.420044,357.277100 530.900146,357.055817 
	C526.094727,356.820526 522.121033,360.422668 521.121338,367.164307 
	C520.445068,371.725037 520.731018,376.496368 521.119629,381.128784 
	C521.550049,386.259338 525.621765,390.729401 529.405212,391.004089 
	C534.088196,391.344055 537.540100,388.306122 539.675171,381.802521 
z"/>
<path fill="#CAA949" opacity="1.000000" stroke="none" 
	d="
M632.051636,373.069855 
	C632.477417,375.963196 632.416443,379.044281 633.442932,381.705933 
	C634.988770,385.714386 638.013000,389.399231 642.318237,389.733185 
	C646.310852,390.042847 650.614807,388.829773 653.167236,384.643036 
	C653.752441,383.683105 655.572632,383.476105 656.824463,382.922577 
	C656.809998,384.212097 657.276855,385.791077 656.703552,386.744629 
	C652.708069,393.389801 644.829224,396.016266 636.381958,393.759918 
	C629.918762,392.033508 624.237671,385.282288 624.025818,378.400543 
	C623.830383,372.051086 623.664185,365.851257 627.817078,360.031799 
	C632.669006,353.232849 639.268188,353.457703 645.926636,354.188019 
	C652.647156,354.925140 655.700012,358.866516 657.015625,366.438812 
	C657.292664,368.033478 657.647888,369.614563 657.441284,371.611023 
	C652.475525,372.016968 648.029968,371.876160 643.597107,372.052277 
	C639.741211,372.205475 635.899597,372.716797 632.051636,373.069855 
M637.150146,358.377930 
	C635.177856,361.927917 633.205505,365.477875 630.696472,369.993958 
	C636.894958,369.993958 641.519836,370.150085 646.118530,369.871582 
	C647.124084,369.810730 648.689331,368.322388 648.885193,367.282104 
	C650.204956,360.273071 644.456055,355.565460 637.150146,358.377930 
z"/>
<path fill="#CAA949" opacity="1.000000" stroke="none" 
	d="
M673.935974,390.413086 
	C676.455688,390.464752 678.997925,390.821442 680.809509,389.835541 
	C682.319641,389.013702 683.830444,386.589783 683.777344,384.925262 
	C683.717773,383.058228 682.344788,380.474609 680.760803,379.564453 
	C676.852661,377.318878 672.371582,376.093994 668.353394,374.010376 
	C663.493042,371.490082 661.846558,367.230225 663.085632,361.926514 
	C664.196106,357.172913 668.164917,354.089111 673.439758,354.020782 
	C678.410461,353.956360 683.382629,354.006989 688.701904,354.006989 
	C688.701904,358.038971 688.701904,361.784760 688.701904,367.327026 
	C686.586487,365.159363 685.448608,363.760529 684.080750,362.643219 
	C681.688232,360.688904 679.363098,358.015533 676.605713,357.370728 
	C674.799988,356.948425 671.282898,359.060059 670.326172,360.946564 
	C668.992920,363.575317 669.792236,366.759674 673.567078,367.918549 
	C676.499634,368.818756 679.297241,370.207947 682.263550,370.938171 
	C688.132629,372.382874 691.515076,377.342773 691.044006,384.336243 
	C690.726807,389.045074 685.550537,393.957520 680.314148,393.948212 
	C676.409485,393.941284 672.503540,393.238464 668.604492,392.790833 
	C667.991028,392.720398 667.355225,392.073547 666.824219,392.177216 
	C662.017090,393.115997 662.020508,393.147522 662.008545,388.220123 
	C662.002197,385.578918 662.007385,382.937714 662.007385,378.819244 
	C666.488037,383.177765 670.065125,386.657257 673.935974,390.413086 
z"/>
<path fill="#C9A845" opacity="1.000000" stroke="none" 
	d="
M567.571777,279.997711 
	C573.695862,278.389038 573.966309,278.578430 573.993469,284.362854 
	C574.013000,288.518372 573.892761,292.677490 574.031799,296.828430 
	C574.128784,299.724976 573.202209,301.128815 570.064392,301.039093 
	C564.603271,300.883026 559.134521,300.995667 553.336914,300.995667 
	C553.336914,294.021088 553.336914,287.311371 553.336914,280.000702 
	C557.923706,280.000702 562.519470,280.000702 567.571777,279.997711 
z"/>
<path fill="#C9A845" opacity="1.000000" stroke="none" 
	d="
M562.985046,306.002625 
	C573.997375,306.002563 574.063416,306.003082 573.980042,316.583954 
	C573.885071,328.638672 575.678650,326.840454 563.801636,326.990051 
	C560.472717,327.031982 557.142883,326.996460 553.407715,326.996460 
	C553.407715,320.154449 553.407715,313.432281 553.407715,306.002625 
	C556.314941,306.002625 559.407471,306.002625 562.985046,306.002625 
z"/>
<path fill="#C9A845" opacity="1.000000" stroke="none" 
	d="
M580.167236,326.024933 
	C580.167236,319.558899 580.167236,313.092896 580.167236,306.028656 
	C586.567017,306.028656 592.831970,306.028656 599.557129,306.555542 
	C600.010986,312.031982 599.906494,316.984100 600.035339,321.930115 
	C600.111877,324.871094 599.025879,326.115082 596.004700,326.037933 
	C590.728882,325.903168 585.446716,326.015930 580.167236,326.024933 
z"/>
<path fill="#2D4794" opacity="1.000000" stroke="none" 
	d="
M339.794098,294.244507 
	C336.224792,290.197571 335.357422,286.019958 337.243134,281.267303 
	C339.649872,275.201508 345.081909,273.148621 351.268860,276.084686 
	C355.661102,278.169037 358.129852,285.822418 355.992584,290.195679 
	C353.190002,295.930237 346.148926,299.390656 339.794098,294.244507 
z"/>
<path fill="#C8CFE3" opacity="1.000000" stroke="none" 
	d="
M247.101471,330.596619 
	C247.435837,331.384949 247.962158,332.630859 247.964371,333.877716 
	C248.011047,360.309540 248.002426,386.741516 247.983475,413.173431 
	C247.982773,414.158325 247.769119,415.143097 247.419250,416.450806 
	C247.139008,388.200684 247.094177,359.627655 247.101471,330.596619 
z"/>
<path fill="#E4D4A3" opacity="1.000000" stroke="none" 
	d="
M742.445312,392.690582 
	C742.030396,369.576782 742.014832,346.317169 742.030579,323.057556 
	C742.031555,321.579865 742.276245,320.102386 742.718994,318.355347 
	C742.970764,342.905518 742.911194,367.725128 742.445312,392.690582 
z"/>
<path fill="#E4D4A3" opacity="1.000000" stroke="none" 
	d="
M474.718201,254.152512 
	C476.865570,254.437622 478.615051,254.967422 480.366516,254.974045 
	C496.643951,255.035522 512.921692,255.006943 529.678894,255.009308 
	C528.979126,255.341629 527.800903,255.950027 526.620422,255.954407 
	C509.815552,256.016785 493.010284,256.017456 476.205811,255.913971 
	C475.621948,255.910370 472.202545,257.576385 474.718201,254.152512 
z"/>
<path fill="#2D4794" opacity="1.000000" stroke="none" 
	d="
M339.998413,331.486389 
	C340.346283,331.614746 340.862640,332.205872 340.860168,332.794739 
	C340.791595,348.961792 340.670197,365.128601 340.322449,381.631531 
	C340.033203,365.294464 339.979126,348.621277 339.998413,331.486389 
z"/>
<path fill="#94A2C9" opacity="1.000000" stroke="none" 
	d="
M234.649368,427.099060 
	C248.944855,426.911469 262.943054,426.965057 277.399719,427.038147 
	C277.038361,427.371918 276.219727,427.956390 275.398529,427.960022 
	C262.459229,428.017487 249.519577,428.011108 236.580139,427.971924 
	C235.836807,427.969666 235.094727,427.560181 234.649368,427.099060 
z"/>
<path fill="#E4D4A3" opacity="1.000000" stroke="none" 
	d="
M600.850220,299.979675 
	C597.599731,300.319122 594.356079,300.798981 591.096802,300.959686 
	C587.636108,301.130249 584.160461,300.997955 580.171265,300.997955 
	C580.171265,293.756287 580.171265,286.568115 580.617554,279.502350 
	C581.063904,279.624756 581.124451,280.096436 581.079163,280.555084 
	C581.020447,285.998779 581.123169,290.987885 580.950134,295.967377 
	C580.846558,298.949005 581.877441,300.178925 584.953430,300.050201 
	C589.929993,299.841888 594.918457,299.917450 600.138672,299.902100 
	C600.375488,299.931030 600.850220,299.979675 600.850220,299.979675 
z"/>
<path fill="#D6BE73" opacity="1.000000" stroke="none" 
	d="
M580.317383,326.428101 
	C585.446716,326.015930 590.728882,325.903168 596.004700,326.037933 
	C599.025879,326.115082 600.111877,324.871094 600.035339,321.930115 
	C599.906494,316.984100 600.010986,312.031982 600.022949,306.624695 
	C600.498718,312.920441 600.968872,319.673889 601.467102,326.831268 
	C593.970093,326.831268 587.218750,326.831268 580.317383,326.428101 
z"/>
<path fill="#D6BE73" opacity="1.000000" stroke="none" 
	d="
M600.915649,299.517944 
	C600.850220,299.979675 600.375488,299.931030 600.170654,299.445709 
	C599.976990,294.000214 599.893372,289.037323 600.035278,284.080902 
	C600.119629,281.136078 599.034058,279.862244 596.001587,279.964447 
	C591.046631,280.131378 586.083923,280.064606 581.124451,280.096436 
	C581.124451,280.096436 581.063904,279.624756 581.039551,279.388306 
	C587.430237,279.151886 593.845398,279.151886 600.981079,279.151886 
	C600.981079,285.725220 600.981079,292.390717 600.915649,299.517944 
z"/>
<path fill="#E4D4A3" opacity="1.000000" stroke="none" 
	d="
M559.103271,361.527466 
	C559.332947,369.816223 559.492798,378.565002 559.403687,387.644287 
	C559.114380,379.312378 559.073914,370.649902 559.103271,361.527466 
z"/>
<path fill="#94A2C9" opacity="1.000000" stroke="none" 
	d="
M262.854248,415.285614 
	C262.613770,407.401276 262.432373,399.072540 262.318787,390.742859 
	C262.316833,390.599731 263.134460,390.445435 263.802887,390.590942 
	C263.690887,393.719543 263.144714,396.546417 263.044312,399.389099 
	C262.862579,404.534821 262.946716,409.689911 262.854248,415.285614 
z"/>
<path fill="#E4D4A3" opacity="1.000000" stroke="none" 
	d="
M501.907532,387.502533 
	C501.562225,382.065155 501.261444,376.165619 501.019958,370.263672 
	C500.918335,367.779999 500.941742,365.291199 500.964233,362.329102 
	C501.346283,363.821075 501.918427,365.784393 501.953217,367.757172 
	C502.066528,374.182709 501.983521,380.611725 501.907532,387.502533 
z"/>
<path fill="#D6BE73" opacity="1.000000" stroke="none" 
	d="
M632.514771,373.039307 
	C635.899597,372.716797 639.741211,372.205475 643.597107,372.052277 
	C648.029968,371.876160 652.475525,372.016968 657.373291,372.025024 
	C655.030396,372.353058 652.235291,372.879089 649.427856,372.956146 
	C643.948181,373.106476 638.461670,373.005646 632.514771,373.039307 
z"/>
<path fill="#E4D4A3" opacity="1.000000" stroke="none" 
	d="
M493.080475,363.484863 
	C493.348053,371.213043 493.540771,379.404785 493.421753,387.912903 
	C493.075195,380.135681 493.040405,372.042084 493.080475,363.484863 
z"/>
<path fill="#E4D4A3" opacity="1.000000" stroke="none" 
	d="
M477.949524,356.762878 
	C477.608765,349.529449 477.306885,341.801636 477.005524,333.615601 
	C477.336731,335.750641 477.877808,338.337769 477.953491,340.938477 
	C478.102051,346.044495 477.991608,351.158020 477.949524,356.762878 
z"/>
<path fill="#E4D4A3" opacity="1.000000" stroke="none" 
	d="
M478.864319,358.021942 
	C478.794220,358.129700 478.397919,358.135193 477.975830,357.855743 
	C478.146118,357.687103 478.342102,357.803375 478.864319,358.021942 
z"/>
<path fill="#000000" opacity="1.000000" stroke="none" 
	d="
M262.972137,331.083557 
	C266.493866,328.737549 269.720825,325.500885 273.594696,324.218750 
	C283.698639,320.874634 293.742401,325.985535 297.887543,337.196991 
	C303.015991,351.067902 302.871460,365.273651 295.987946,378.681030 
	C291.032410,388.333160 279.707977,392.149231 271.557190,386.955597 
	C268.149017,384.783844 265.859375,380.856720 263.023773,376.906738 
	C262.981628,361.085022 262.976868,346.084290 262.972137,331.083557 
z"/>
<path fill="#94A2C9" opacity="1.000000" stroke="none" 
	d="
M262.659851,331.355865 
	C262.976868,346.084290 262.981628,361.085022 262.941681,376.559204 
	C262.617737,376.463989 262.093109,375.894409 262.095093,375.326660 
	C262.145782,360.760376 262.251434,346.194275 262.659851,331.355865 
z"/>
<path fill="#000000" opacity="1.000000" stroke="none" 
	d="
M176.624664,365.863586 
	C183.070343,356.470734 193.113434,354.593292 202.996414,351.340149 
	C202.996414,359.318420 203.277893,366.803802 202.827576,374.244904 
	C202.689697,376.523193 200.838776,378.933716 199.222168,380.809509 
	C198.001572,382.225800 195.944382,382.963257 194.191437,383.871368 
	C186.497284,387.857300 182.970734,387.453461 177.940277,383.416473 
	C174.292450,380.489044 173.394836,373.425446 176.012878,367.091095 
	C176.139832,366.783905 176.273453,366.479431 176.624664,365.863586 
z"/>
<path fill="#000000" opacity="1.000000" stroke="none" 
	d="
M403.483887,386.737335 
	C395.511505,380.338837 393.491241,371.438904 392.372681,362.436157 
	C391.034821,351.668365 391.716675,340.849854 396.732483,331.004425 
	C400.381714,323.841492 406.497284,320.269104 415.032013,320.896149 
	C422.757996,321.463776 427.460632,326.242737 429.883789,332.349274 
	C436.197205,348.259460 436.345581,364.518677 428.247131,379.947601 
	C423.272156,389.425690 413.586487,391.729370 403.483887,386.737335 
z"/>
<path fill="#000000" opacity="1.000000" stroke="none" 
	d="
M539.409424,382.118042 
	C537.540100,388.306122 534.088196,391.344055 529.405212,391.004089 
	C525.621765,390.729401 521.550049,386.259338 521.119629,381.128784 
	C520.731018,376.496368 520.445068,371.725037 521.121338,367.164307 
	C522.121033,360.422668 526.094727,356.820526 530.900146,357.055817 
	C535.420044,357.277100 539.527222,362.073334 539.919739,368.324097 
	C540.200378,372.794159 539.781799,377.308136 539.409424,382.118042 
z"/>
<path fill="#000000" opacity="1.000000" stroke="none" 
	d="
M637.510620,358.226990 
	C644.456055,355.565460 650.204956,360.273071 648.885193,367.282104 
	C648.689331,368.322388 647.124084,369.810730 646.118530,369.871582 
	C641.519836,370.150085 636.894958,369.993958 630.696472,369.993958 
	C633.205505,365.477875 635.177856,361.927917 637.510620,358.226990 
z"/>
<path fill="#C9A845" opacity="1.000000" stroke="none" 
	d="
M581.079163,280.555084 
	C586.083923,280.064606 591.046631,280.131378 596.001587,279.964447 
	C599.034058,279.862244 600.119629,281.136078 600.035278,284.080902 
	C599.893372,289.037323 599.976990,294.000214 599.933838,299.416748 
	C594.918457,299.917450 589.929993,299.841888 584.953430,300.050201 
	C581.877441,300.178925 580.846558,298.949005 580.950134,295.967377 
	C581.123169,290.987885 581.020447,285.998779 581.079163,280.555084 
z"/>
</svg>